<svg xmlns="http://www.w3.org/2000/svg" viewBox="0 0 909.28 717.48"><defs><style>.a{fill:#efe8e1;}.b{fill:#f1decd;}.c{fill:#e7d2c1;}.d{fill:#5b2104;}.e{fill:#280c00;}</style></defs><path class="a" d="M84.92,671.74c-6.81-6.09-13.52-12.62-18.66-20.23a52.78,52.78,0,0,1-7.86-17.42C58.63,652.35,71.5,662.42,84.92,671.74Z"/><path class="b" d="M253.53,427.42c.53-4.69,1-9.47,3.14-13.26-42.53-1.39-86.09-.91-127.73,5.73A268.87,268.87,0,0,0,84.6,430.66c8.41,4.23,21.87.56,29.84-1.06,9.36-1.91,18.65-4.12,28.05-5.83,8.24-1.49,16.93-1.53,25.25-2.7,5.63-.79,10.93-1.44,16.32.71a.06.06,0,1,1,0,.12c-9.21-2.87-19.17.9-28.46,2a336.3,336.3,0,0,0-33.68,5.71c-10.62,2.3-29.84,9-40.3,2.14A202.55,202.55,0,0,0,58.1,441.75c13.52,7.47,30.6,1.28,44.51-2.08,16-3.85,32.32-5.28,48.58-7.39.08,0,.12.11,0,.12-20.74,3.22-41,7.53-61.47,12.1-9.19,2.05-26.51,6.58-34.5-1.28a177.32,177.32,0,0,0-16.06,9.6c22.18,11.93,50.58-1.27,73.48-5a449.49,449.49,0,0,1,69.4-5.75c.16,0,.15.24,0,.25-28.24.43-59,3.59-86.28,10.74-16.74,4.39-43.82,14.67-59.3,1.63-4.31,3-8.5,6.28-12.53,9.77,0,0,0,0,0,.07,1.65,14.1,29.31,11.17,37.52,8.94C73.58,470.18,85,464.21,97.33,462c12.15-2.21,24.47-2.91,36.62-5.08,8.44-1.52,16.75-2.4,25.15-.28.06,0,0,.1,0,.09-14.52-2.85-30.08,2.51-44.62,4-16.6,1.72-30.25,6.94-45.91,12.07-10.8,3.54-23.35,8-34.71,4.1-5.49-1.85-11.26-4.4-12.56-10.06q-4.46,4-8.65,8.47c-8.5,10.48-13.11,22.64,3.23,27.55,22,6.59,49-7,69.83-13.38,11.71-3.59,23.61-7.07,35.85-8.25,20.7-2,41.89-1.19,62.53,1.1,21.63,2.39,44,6.08,64,15.17,9.94,4.53,19.47,11.2,25.16,19.73a134.92,134.92,0,0,0-4.9-15.16c-4.35-11.88-8.65-23.93-11.28-36.33S252.11,440.05,253.53,427.42Zm-78.68,2.43c-.15,0-.19-.24,0-.27,13.22-2.48,26.75-1.35,40.09-.61.12,0,.12.19,0,.18A313.2,313.2,0,0,0,174.85,429.85ZM47.52,491.68c-12.12,4.21-28.28,3.78-34-10-.19-.45.46-.73.77-.44,5.21,4.91,9.57,10,17.29,10.35,5.26.27,10.6-.34,15.88-.42C47.75,491.19,47.77,491.59,47.52,491.68Zm212.39-1.75c.28.44-.39.81-.69.4-7.46-10-23.37-12.29-34.71-15.29-16.72-4.42-33.48-5.5-50.71-5.25-19,.29-39.37-1-58,3.17-16.39,3.68-32.54,8.68-48.67,13.32-.12,0-.17-.16-.05-.18C87,481.21,105.5,472.48,126,469.67c9.63-1.33,19.6-.77,29.3-1,9.86-.25,19.81-.74,29.66-.26a218.84,218.84,0,0,1,48,7.79C241.94,478.68,254.54,481.4,259.91,489.93Z"/><path class="c" d="M649.6,147.83a157.54,157.54,0,0,0,37.69,4.81c-3.69-12.93,9.91-24.59,20.2-31,15.36-9.59,33.94-11.35,51.12-16.19,20.56-5.8,44.81-13.2,58.76-30.57,9.18-11.43,13.1-26.28,9.57-40.75a103.63,103.63,0,0,0-4.61-13.85c1.25,8.79-.22,17.24-5.32,27C811.39,58,794.36,63.12,783.65,65.64c-26.79,6.29-54.75,6.07-82.07,7.71-22.74,1.37-54.53,1.27-72.79,17.31a31.4,31.4,0,0,0-10,30.37C622.15,136.13,635.52,144.11,649.6,147.83ZM704.81,79c15.89-1.36,32.4-.12,48.51-1.2,4.41-.44,8.82-.94,13.22-1.54,2-.35,4.07-.74,6.08-1.23a205.4,205.4,0,0,0,29.27-9.54c11.79-4.78,15.87-12.86,21.46-23.39.22-.43.84-.06.64.37-3.7,7.88-8.34,16.41-16,21a89,89,0,0,1-31.93,11.36q-4.75.75-9.51,1.38a126.44,126.44,0,0,1-13.22,1.54,320.23,320.23,0,0,1-48.51,1.32A.06.06,0,1,1,704.81,79Zm34.93,24.12c23.13-4.65,46.39-6.41,66.78-19.58.14-.09.29.11.17.21-15.1,13.16-37.59,14.53-56.36,18.19-21.88,4.27-44.66,11.54-60.53,27.78a.14.14,0,0,1-.22-.16C700,112.54,721.45,106.79,739.74,103.1ZM625.28,114.5c3.23-23.63,29.59-36.28,52-31.59.08,0,.06.16,0,.15-10-1.07-25.49,3.62-34.47,8.53-9.33,5.11-15.3,12.33-17.34,22.93C625.39,114.59,625.27,114.57,625.28,114.5Z"/><path class="a" d="M902.29,236.71c.88-5.9,1.89-11.78,2.85-17.67-.44.89-.91,1.78-1.43,2.67-16.08,27.38-53.75,40.65-83.27,46.34-55.39,10.68-113.53-3.29-167.63-14.82-60.69-12.94-121.49-25.72-182.34-37.9-61.87-12.39-124.38-23-187.51-26-50.66-2.41-103.78-3.41-154,4.65-42.35,6.79-82,21.74-112.44,51.54C7.39,256.58,4,268.46,6,283.94a506.4,506.4,0,0,1,4.19,71.87c-.38,23.95-1.71,47.94-3.44,71.83-1.26,17.24-1.9,34.67-3.35,52,3.84-6.87,10.26-13.12,15.16-17a170.2,170.2,0,0,1,27.33-17.45c59.68-37.94,142.47-36.66,210.79-35.44,1.38,0,2.76.07,4.14.1.29-.19.59-.38.91-.55a.87.87,0,0,1,1.32.61c121.76,3.18,239.81,34.62,358.71,58C682,479.68,744,497.9,805.93,491.16A173,173,0,0,0,866,473.33c17.18-8.87,37-22.31,37.94-43.6h0c-1.61-7.65-3.76-15.21-5.08-23-1.81-10.63-2.84-21.34-3.67-32.08-1.82-23.58-3.09-46.77-1.29-70.41C895.61,281.59,898.91,259.18,902.29,236.71ZM397.52,211c2.54,1.16,5.36,1.41,7.91,2.57.18.08,0,.35-.16.27-2.51-1.2-5.33-1.49-7.85-2.68C397.32,211.06,397.41,210.91,397.52,211Zm-201,186c-18.61.63-38,1.53-57,4.42-10.33,2-20.58,4.4-30.72,6.92-4.36,1.36-8.66,2.87-12.86,4.6-31.11,12.8-59.34,28.25-85.63,49.3a.42.42,0,0,1-.59-.59c21.46-23.87,55-42,85.88-50q6.57-1.69,13.2-3.34a208.81,208.81,0,0,1,30.72-6.92c18.83-3.67,37.9-6.11,57-5.87A.73.73,0,0,1,196.52,397Zm12.06-197.14c-16.49,1.83-32.46.75-49,.38-32-.72-63.83,11.9-92.66,24.67-21,9.32-47.08,21.85-51.88,46.9-.25,1.27-2.42,1-2.27-.32C15.5,247,37.72,233.82,58.42,224.65c28-12.41,56.77-22.7,87.63-25.12,18.6-1.46,37.13,1.85,55.78,0,19.31-1.93,37.68-1.77,57.07-1.23,20.21.57,40.54-.22,60.71.76,16.7.81,36.2.92,51.72,7.83.25.11.12.5-.13.49-18.45-.67-36.8-4.71-55.36-5.52-17.71-.77-35.41-.93-53.13-1.55C244.29,199.66,227,197.76,208.58,199.81Zm202,212.34c-17-2.89-34.26-6.95-51.44-8.55-17-1.58-34-.7-51-1.26-12-.4-23-2.06-34.86-4.23-11.39-2.1-24.8-5.2-35.9-.41a.19.19,0,0,1-.19-.32c7.86-5.82,20-4.22,29-3,14.15,2,27.65,4.41,42,4.62a480.94,480.94,0,0,1,102.54,12.79C410.87,411.87,410.77,412.18,410.56,412.15Zm181,41.1c-22-9.51-45.31-14.84-69-18.32-13.4-2-26.94-1.93-40.3-3.75-12.24-1.68-22.66-9.23-34.88-10a0,0,0,1,1,0-.09c14.16.67,26.62,8.21,41.14,8.75a328.44,328.44,0,0,1,34.6,3c22.65,3.24,49.56,6.43,69,19.28A.63.63,0,0,1,591.54,453.25Zm8.19-203.62c-64.43-7.23-127.13-22.78-190.45-35.91-.08,0,0-.13,0-.12,63.37,12.44,127.2,22.53,190.56,35C600.43,248.74,600.3,249.7,599.73,249.63ZM896.12,431.25c.53-.41,1.33.09,1,.74-5.47,9.92-15.65,17.18-25.1,23.05s-19.4,11.76-30.27,14.89c-23.56,6.77-48.89,7.9-73.25,6.55-26.6-1.47-53-5.41-79.51-8-25-2.46-52-4.64-75-15.32-.54-.25-.16-1.08.39-.93,27,7.43,53.78,11.28,81.69,13.82,23.22,2.12,46.26,7.16,69.47,8.58s47.38.81,69.9-5.86C859.49,461.61,876.85,446.45,896.12,431.25Zm-50-159.18c-22.26,7.76-44.25,11.87-67.92,10.86-47.7-2.05-94.75-15.33-141.7-23.18-.14,0-.11-.24,0-.24,45.54.15,89.37,17.21,134.77,19.84,43.62,2.52,91.26-8.16,125.08-37a.28.28,0,0,1,.4.39C884.6,258.16,864.06,265.81,846.1,272.07Z"/><path class="c" d="M252.35,505.1c3.48,10.13-2.17,21.64-11.12,28-12.54,9-30.51,14.75-46,12.91-.1,0-.14-.16,0-.18,13-1.93,26.17-4.35,37.8-10.9,6.12-3.44,12.84-8,15.66-14.76,2.6-6.21,1.27-11.46-.39-17.2a103.89,103.89,0,0,0-12.14-4.81c7.89,9.36,3.52,25.79-5.78,33.39-15.52,12.67-40.05,9.72-58.58,12.76-31,5.09-65.34,11-89.53,32.65-11.11,9.94-21.85,22.44-26.43,36.92a42.08,42.08,0,0,0-1.43,19.15c1.2-24.89,29.59-44.21,51.34-53.86,33.53-14.89,70.55-9.76,105.89-8.9,15.44.37,34.14.47,47.11-9.31a38.66,38.66,0,0,0,12.42-16.89c-25.26,33.91-76.62,16.17-112.7,17.66a0,0,0,0,1,0-.09c20-1.31,39.55,2,59.48,2.09,23.09.14,40.62-5.57,54.41-23.51.1-.4.17-.81.25-1.21a.39.39,0,0,1-.18-.49c.18-.42.32-.85.47-1.27a24,24,0,0,0-.2-8C270.43,518.37,262.43,510.68,252.35,505.1ZM132.22,564.53C117.89,568.18,106.36,574,94,581.89c-9.74,6.22-19,13.24-28.73,19.4-.18.12-.41-.17-.24-.32,19.21-16.41,41.76-32.11,67.07-36.82C132.36,564.1,132.47,564.47,132.22,564.53Z"/><path class="b" d="M645.07,246.59l5.5,1.16c48.6,10.34,101.82,23.88,152.35,18.16a35.32,35.32,0,0,0,4.12-7.65c.08-.22.46-.2.43.06a14.42,14.42,0,0,1-3.54,7.47q9-1.07,17.82-3c4-9.64,8.78-18.06,1.14-28.05-.1-.13.12-.29.22-.17a22.88,22.88,0,0,1,1.15,27.66l.3-.06c4.39-1,8.79-2.21,13.16-3.51,7-12.33,10-29.24-2.18-39.84-10.33-9-24.81-11.83-38.14-12.22a.17.17,0,0,1,0-.34c16.18-.08,33.13,2.26,43.94,15.57C848,230,849,247.37,842.5,257.15q4.68-1.53,9.27-3.3c3.08-7.15,6.85-13.9,6.71-22.11-.17-9.43-3.45-19.09-10.39-25.76-10.34-9.94-24.57-13.41-38.54-14.23-34.8-2-69.87,3.2-103.41,12.15a.09.09,0,0,1,0-.18,286.24,286.24,0,0,1,73.58-14.32c14.59-.82,29.82-1.68,44.2,1.53,13.43,3,26.89,9.67,33.14,22.68a41.79,41.79,0,0,1-1.74,38.82q5.87-2.43,11.48-5.36c4.54-15.56,4.76-32.1-5.51-45.8a52.79,52.79,0,0,0-32.39-19.92c-32.21-6-66.29.75-98.45,4.24-.18,0-.23-.3,0-.33,22.26-3.15,44.48-5.79,67-6.52,15.79-.51,30.47.31,45.25,6.38,22.44,9.22,34.28,37.13,27.61,60.11,1.63-.91,3.24-1.83,4.82-2.81s3.34-2.13,5-3.29c6.15-17.92,3.19-40.43-11.67-53.38C854.85,174,836.68,169,819.1,167.48c-21.21-1.81-42.44,1.55-63.52,3.6-26.39,2.57-52.48,4.91-79,3.91a.07.07,0,0,1,0-.15c31.5.44,62.77-4.05,94-7.76,21.7-2.59,43.73-5.5,65.36-.69,16,3.55,33.59,10.43,42.89,24.76,8.55,13.18,11.09,30.43,5.35,45,11-8.46,20.73-19.92,19.72-34.23-1.56-22.08-21.75-40.83-41.11-48.93-21.2-8.87-44.78-9.81-67.43-8-32.25,2.6-63.72,10.91-96.15,11.82-24.21.69-61.92.87-78.28-21.05,1.06,3.39,2.21,6.8,3.37,10.27,4.34,13,9,25.95,12.81,39.12C642.56,203.93,648.9,226.69,645.07,246.59Zm65.65-58.86c.39,0,.39.51.08.63-16.08,6.2-35.33,3.36-52,1.1-.12,0-.12-.19,0-.19C676.5,189.74,693.13,189.94,710.72,187.73Zm4.56-24.11c10.81-2.79,21.91-2.46,32.89-4.23,12.29-2,24.46-4.51,36.81-6.19,18.11-2.46,37-3.75,55.1-.19,29.66,5.86,65.37,28.34,55,63.41-.15.52-1,.44-1-.13.87-9.6,1.89-19.48-3.18-28.27A60.5,60.5,0,0,0,872,167.74c-14.84-9.62-32.4-14.29-50-15.08-18.72-.85-36.58,3-54.88,6.29-17.34,3.12-34.43,2.81-51.82,4.94C715.15,163.91,715.13,163.66,715.28,163.62Zm-82.1-9a.09.09,0,0,1,.09-.16c12.27,6.15,25.43,7,38.84,8.33,10.94,1.13,24.59,3.83,35.3.85a.09.09,0,0,1,0,.18c-7.08,2.27-13.75,1-21,1.06-6.79.08-13.54.86-20.32.2C654.32,164,642.87,161.82,633.18,154.64Z"/><path class="d" d="M906.67,237.32c1.78-13.58,3.8-27.29,1.74-40.74,0,0-.06,0-.06,0a2.26,2.26,0,0,1,0,.26c-4.14-23.3-30.15-43.55-50.82-50.91-36.38-12.95-77.88-4.71-114.75,1.66-16.9,2.92-34.86,5.12-52.63,5.08-5.16-17.46,24.38-32.29,37.49-35.46,20.85-5,41.9-9.52,61.7-18,15.54-6.65,31.76-17.39,38.48-33.6,8.62-20.82,1.26-41.35-9.52-59.57-.73-1.82-1.53-3.69-2.42-5.61a.74.74,0,0,0-1.2-.25.21.21,0,0,1,0-.06c-.12-.19-.45-.07-.37.15s.07.18.11.28a.9.9,0,0,0,0,.77c5.34,11.83,10.84,32.56-.4,43.59a59.92,59.92,0,0,1-27.22,15.73c-26.76,7.68-55.84,7-83.41,8.53-23.54,1.33-50.49,2.11-71.45,14.24a36.33,36.33,0,0,0-17.9,33c-.52,17.51,8.24,36.73,13.17,52,7.62,23.6,17.82,51.88,13.48,77.21q-86.16-18.3-172.54-35.72c-59.9-12-120.31-21.76-181.35-25.13-49.66-2.74-101.22-2.76-150.58,4-41.92,5.75-83.51,20.06-114.15,49a.69.69,0,0,0-.58.1A43.64,43.64,0,0,0,5.62,256.22c-.15.21-.32.41-.48.62a.27.27,0,0,0,.05.36,46.17,46.17,0,0,0-3.65,16.74C1.28,282.25,3,290.74,3.76,299,5,312.83,5.31,326.72,5.28,340.61c0,25.25-1.44,50.41-2.6,75.63-1.08,23.34-3.75,47.48-2.22,71a15,15,0,0,0,4.18,14.14c15.64,16.13,43.53,5.47,61.48,0,19-5.77,37.84-13.14,57.74-14.9,28.25-2.51,57.63-.21,85.41,5.15a223.75,223.75,0,0,1,25.13,6.05c6.85,9.28-.19,26.38-8.26,32C217,536,204.06,537,193.34,538c-26.32,2.52-52.3,7.11-77.47,15.48-23.52,7.83-43.75,24.46-56.81,45.4-12,19.2-11.28,39.16,1.81,57.57a.41.41,0,0,0,.59.13c15.68,23.07,50.55,27.18,52.82,60.06a.82.82,0,0,0,1.63,0c.24-12.54-3.8-21.75-11.33-29.67-6.5-9-17.3-15.76-24.87-23.31a88.63,88.63,0,0,1-16.4-21.85,28.47,28.47,0,0,1-2.78-19.79c7.69-20.53,34.57-34.71,52.92-41.15,22.14-7.78,48.37-8.42,71.63-6.92,31.7,2,76.76,8.67,91.07-28a30.37,30.37,0,0,0,1.35-19.46c.21-10.52-5.08-23.17-7.56-31A293.59,293.59,0,0,1,259.62,454c-1.88-11.4-4.79-28.46.94-39.73,7.51.27,15,.58,22.4.93,63.13,3,125.64,13.61,187.51,26,60.85,12.18,121.65,25,182.34,37.9,55.6,11.85,115.85,26.42,172.59,13.76,30.81-6.87,81.65-25.07,83.23-63.13a2,2,0,0,0-1.06-2,33.45,33.45,0,0,0-.9-12.47c-3.19-12.12-4.3-24.67-5.3-37.12-1.89-23.53-3.21-46.59-2-70.21S903.61,260.77,906.67,237.32ZM628.79,90.66c18.26-16,50.05-15.94,72.79-17.31,27.32-1.64,55.28-1.42,82.07-7.71C794.36,63.12,811.39,58,817,47.25c5.1-9.75,6.57-18.2,5.32-27a103.63,103.63,0,0,1,4.61,13.85c3.53,14.47-.39,29.32-9.57,40.75-14,17.37-38.2,24.77-58.76,30.57-17.18,4.84-35.76,6.6-51.12,16.19-10.29,6.43-23.89,18.09-20.2,31a157.54,157.54,0,0,1-37.69-4.81c-14.08-3.72-27.45-11.7-30.78-26.8A31.4,31.4,0,0,1,628.79,90.66Zm8.28,94.49C633.23,172,628.6,159,624.26,146c-1.16-3.47-2.31-6.88-3.37-10.27,16.36,21.92,54.07,21.74,78.28,21.05,32.43-.91,63.9-9.22,96.15-11.82,22.65-1.83,46.23-.89,67.43,8,19.36,8.1,39.55,26.85,41.11,48.93,1,14.31-8.74,25.77-19.72,34.23,5.74-14.55,3.2-31.8-5.35-45-9.3-14.33-26.93-21.21-42.89-24.76-21.63-4.81-43.66-1.9-65.36.69-31.2,3.71-62.47,8.2-94,7.76a.08.08,0,0,0,0,.15c26.53,1,52.62-1.34,79-3.91,21.08-2.05,42.31-5.41,63.52-3.6,17.58,1.49,35.75,6.49,49.28,18.27,14.86,12.95,17.82,35.46,11.67,53.38-1.69,1.16-3.37,2.27-5,3.29s-3.19,1.9-4.82,2.81c6.67-23-5.17-50.89-27.61-60.11-14.78-6.07-29.46-6.89-45.25-6.38-22.49.73-44.71,3.37-67,6.52-.19,0-.14.35,0,.33,32.16-3.49,66.24-10.25,98.45-4.24a52.79,52.79,0,0,1,32.39,19.92c10.27,13.7,10,30.24,5.51,45.8q-5.61,2.93-11.48,5.36A41.79,41.79,0,0,0,857,213.61c-6.25-13-19.71-19.68-33.14-22.68-14.38-3.21-29.61-2.35-44.2-1.53a286.24,286.24,0,0,0-73.58,14.32.09.09,0,0,0,0,.18c33.54-9,68.61-14.18,103.41-12.15,14,.82,28.2,4.29,38.54,14.23,6.94,6.67,10.22,16.33,10.39,25.76.14,8.21-3.63,15-6.71,22.11q-4.59,1.77-9.27,3.3c6.52-9.78,5.49-27.12-1.16-35.31-10.81-13.31-27.76-15.65-43.94-15.57a.17.17,0,0,0,0,.34c13.33.39,27.81,3.22,38.14,12.22,12.17,10.6,9.17,27.51,2.18,39.84-4.37,1.3-8.77,2.47-13.16,3.51l-.3.06a22.88,22.88,0,0,0-1.15-27.66c-.1-.12-.32,0-.22.17,7.64,10,2.82,18.41-1.14,28.05q-8.85,1.93-17.82,3a14.42,14.42,0,0,0,3.54-7.47c0-.26-.35-.28-.43-.06a35.32,35.32,0,0,1-4.12,7.65c-50.53,5.72-103.75-7.82-152.35-18.16l-5.5-1.16C648.9,226.69,642.56,203.93,637.07,185.15ZM66.26,651.51c5.14,7.61,11.85,14.14,18.66,20.23-13.42-9.32-26.29-19.39-26.52-37.65A52.78,52.78,0,0,0,66.26,651.51Zm206.6-114.23c-.15.42-.29.85-.47,1.27a.39.39,0,0,0,.18.49c-.08.4-.15.81-.25,1.21-13.79,17.94-31.32,23.65-54.41,23.51-19.93-.11-39.5-3.4-59.48-2.09a0,0,0,1,0,0,.09c36.08-1.49,87.44,16.25,112.7-17.66A38.66,38.66,0,0,1,258.71,561c-13,9.78-31.67,9.68-47.11,9.31-35.34-.86-72.36-6-105.89,8.9-21.75,9.65-50.14,29-51.34,53.86a42.08,42.08,0,0,1,1.43-19.15c4.58-14.48,15.32-27,26.43-36.92,24.19-21.63,58.55-27.56,89.53-32.65,18.53-3,43.06-.09,58.58-12.76,9.3-7.6,13.67-24,5.78-33.39A103.89,103.89,0,0,1,248.26,503c1.66,5.74,3,11,.39,17.2-2.82,6.74-9.54,11.32-15.66,14.76-11.63,6.55-24.79,9-37.8,10.9-.12,0-.08.17,0,.18,15.51,1.84,33.48-4,46-12.91,9-6.39,14.6-17.9,11.12-28,10.08,5.58,18.08,13.27,20.31,24.15A24,24,0,0,1,272.86,537.28Zm-4.58-35.23a134.92,134.92,0,0,1,4.9,15.16C267.49,508.68,258,502,248,497.48c-20-9.09-42.32-12.78-64-15.17-20.64-2.29-41.83-3.11-62.53-1.1-12.24,1.18-24.14,4.66-35.85,8.25-20.82,6.37-47.86,20-69.83,13.38-16.34-4.91-11.73-17.07-3.23-27.55q4.2-4.44,8.65-8.47c1.3,5.66,7.07,8.21,12.56,10.06,11.36,3.85,23.91-.56,34.71-4.1,15.66-5.13,29.31-10.35,45.91-12.07,14.54-1.51,30.1-6.87,44.62-4,.06,0,.08-.08,0-.09-8.4-2.12-16.71-1.24-25.15.28-12.15,2.17-24.47,2.87-36.62,5.08-12.34,2.25-23.75,8.22-35.82,11.51-8.21,2.23-35.87,5.16-37.52-8.94,0,0,0,0,0-.07,4-3.49,8.22-6.73,12.53-9.77,15.48,13,42.56,2.76,59.3-1.63,27.33-7.15,58-10.31,86.28-10.74.15,0,.16-.25,0-.25a449.49,449.49,0,0,0-69.4,5.75c-22.9,3.73-51.3,16.93-73.48,5a177.32,177.32,0,0,1,16.06-9.6c8,7.86,25.31,3.33,34.5,1.28,20.45-4.57,40.73-8.88,61.47-12.1.08,0,0-.13,0-.12-16.26,2.11-32.6,3.54-48.58,7.39-13.91,3.36-31,9.55-44.51,2.08A202.55,202.55,0,0,1,81.59,431.7c10.46,6.87,29.68.16,40.3-2.14a336.3,336.3,0,0,1,33.68-5.71c9.29-1.05,19.25-4.82,28.46-2a.06.06,0,1,0,0-.12c-5.39-2.15-10.69-1.5-16.32-.71-8.32,1.17-17,1.21-25.25,2.7-9.4,1.71-18.69,3.92-28.05,5.83-8,1.62-21.43,5.29-29.84,1.06a268.87,268.87,0,0,1,44.34-10.77c41.64-6.64,85.2-7.12,127.73-5.73-2.18,3.79-2.61,8.57-3.14,13.26-1.42,12.63.86,26,3.47,38.3S263.93,490.17,268.28,502.05ZM895.17,374.68c.83,10.74,1.86,21.45,3.67,32.08,1.32,7.75,3.47,15.31,5.08,23h0c-1,21.29-20.76,34.73-37.94,43.6a173,173,0,0,1-60.05,17.83C744,497.9,682,479.68,621.76,467.84c-118.9-23.39-236.95-54.83-358.71-58a.87.87,0,0,0-1.32-.61c-.32.17-.62.36-.91.55-1.38,0-2.76-.08-4.14-.1-68.32-1.22-151.11-2.5-210.79,35.44a170.2,170.2,0,0,0-27.33,17.45c-4.9,3.92-11.32,10.17-15.16,17,1.45-17.29,2.09-34.72,3.35-52,1.73-23.89,3.06-47.88,3.44-71.83A506.4,506.4,0,0,0,6,283.94c-2-15.48,1.39-27.36,10.5-38.42C47,215.72,86.59,200.77,128.94,194c50.24-8.06,103.36-7.06,154-4.65,63.13,3,125.64,13.61,187.51,26,60.85,12.18,121.65,25,182.34,37.9,54.1,11.53,112.24,25.5,167.63,14.82,29.52-5.69,67.19-19,83.27-46.34.52-.89,1-1.78,1.43-2.67-1,5.89-2,11.77-2.85,17.67-3.38,22.47-6.68,44.88-8.41,67.56C892.08,327.91,893.35,351.1,895.17,374.68Z"/><path class="d" d="M642.75,91.59c9-4.91,24.5-9.6,34.47-8.53.09,0,.11-.14,0-.15-22.38-4.69-48.74,8-52,31.59,0,.07.11.09.13,0C627.45,103.92,633.42,96.7,642.75,91.59Z"/><path class="d" d="M753.32,77.78a126.44,126.44,0,0,0,13.22-1.54C762.14,76.84,757.73,77.34,753.32,77.78Z"/><path class="d" d="M808,63.5c7.67-4.64,12.31-13.17,16-21,.2-.43-.42-.8-.64-.37-5.59,10.53-9.67,18.61-21.46,23.39A205.4,205.4,0,0,1,772.62,75c-2,.49-4,.88-6.08,1.23q4.76-.63,9.51-1.38A89,89,0,0,0,808,63.5Z"/><path class="d" d="M753.32,77.78c-16.11,1.08-32.62-.16-48.51,1.2a.06.06,0,1,0,0,.12A320.23,320.23,0,0,0,753.32,77.78Z"/><path class="d" d="M686.41,164.9c7.29-.08,14,1.21,21-1.06a.09.09,0,0,0,0-.18c-10.71,3-24.36.28-35.3-.85-13.41-1.38-26.57-2.18-38.84-8.33a.09.09,0,0,0-.09.16c9.69,7.18,21.14,9.33,32.91,10.46C672.87,165.76,679.62,165,686.41,164.9Z"/><path class="d" d="M767.13,159c18.3-3.29,36.16-7.14,54.88-6.29,17.59.79,35.15,5.46,50,15.08A60.5,60.5,0,0,1,890.92,188c5.07,8.79,4.05,18.67,3.18,28.27-.05.57.81.65,1,.13,10.39-35.07-25.32-57.55-55-63.41-18.07-3.56-37-2.27-55.1.19-12.35,1.68-24.52,4.21-36.81,6.19-11,1.77-22.08,1.44-32.89,4.23-.15,0-.13.29,0,.27C732.7,161.76,749.79,162.07,767.13,159Z"/><path class="d" d="M689.8,129.7c15.87-16.24,38.65-23.51,60.53-27.78,18.77-3.66,41.26-5,56.36-18.19.12-.1,0-.3-.17-.21-20.39,13.17-43.65,14.93-66.78,19.58-18.29,3.69-39.71,9.44-50.16,26.44A.14.14,0,0,0,689.8,129.7Z"/><path class="d" d="M47.46,491.2c-5.28.08-10.62.69-15.88.42-7.72-.39-12.08-5.44-17.29-10.35-.31-.29-1,0-.77.44,5.72,13.75,21.88,14.18,34,10C47.77,491.59,47.75,491.19,47.46,491.2Z"/><path class="d" d="M184.92,468.4c-9.85-.48-19.8,0-29.66.26-9.7.24-19.67-.32-29.3,1C105.5,472.48,87,481.21,67.13,486.1c-.12,0-.07.22.05.18,16.13-4.64,32.28-9.64,48.67-13.32,18.58-4.17,39-2.88,58-3.17,17.23-.25,34,.83,50.71,5.25,11.34,3,27.25,5.27,34.71,15.29.3.41,1,0,.69-.4-5.37-8.53-18-11.25-27-13.74A218.84,218.84,0,0,0,184.92,468.4Z"/><path class="d" d="M132.11,564.15C106.8,568.86,84.25,584.56,65,601c-.17.15.06.44.24.32,9.78-6.16,19-13.18,28.73-19.4,12.35-7.9,23.88-13.71,38.21-17.36C132.47,564.47,132.36,564.1,132.11,564.15Z"/><path class="d" d="M196.53,395.5c-19.1-.24-38.17,2.2-57,5.87,18.95-2.89,38.38-3.79,57-4.42A.73.73,0,0,0,196.53,395.5Z"/><path class="d" d="M9.73,461.6a.42.42,0,0,0,.59.59c26.29-21.05,54.52-36.5,85.63-49.3,4.2-1.73,8.5-3.24,12.86-4.6q-6.63,1.63-13.2,3.34C64.71,419.58,31.19,437.73,9.73,461.6Z"/><path class="d" d="M139.53,401.37a208.81,208.81,0,0,0-30.72,6.92C119,405.77,129.2,403.39,139.53,401.37Z"/><path class="d" d="M410.65,411.82A480.94,480.94,0,0,0,308.11,399c-14.35-.21-27.85-2.65-42-4.62-9-1.25-21.11-2.85-29,3a.19.19,0,0,0,.19.32c11.1-4.79,24.51-1.69,35.9.41,11.81,2.17,22.81,3.83,34.86,4.23,17,.56,34.05-.32,51,1.26,17.18,1.6,34.42,5.66,51.44,8.55C410.77,412.18,410.87,411.87,410.65,411.82Z"/><path class="d" d="M592.17,452.15c-19.49-12.85-46.4-16-69-19.28a328.44,328.44,0,0,0-34.6-3c-14.52-.54-27-8.08-41.14-8.75a0,0,0,1,0,0,.09c12.22.73,22.64,8.28,34.88,10,13.36,1.82,26.9,1.79,40.3,3.75,23.67,3.48,47,8.81,69,18.32A.63.63,0,0,0,592.17,452.15Z"/><path class="d" d="M765.48,474.61c-23.21-1.42-46.25-6.46-69.47-8.58-27.91-2.54-54.65-6.39-81.69-13.82-.55-.15-.93.68-.39.93C637,463.82,664,466,689,468.46c26.5,2.61,52.91,6.55,79.51,8,24.36,1.35,49.69.22,73.25-6.55,10.87-3.13,20.72-9,30.27-14.89s19.63-13.13,25.1-23.05c.36-.65-.44-1.15-1-.74-19.27,15.2-36.63,30.36-60.74,37.5C812.86,475.42,788.77,476,765.48,474.61Z"/><path class="d" d="M896.36,242.36c-33.82,28.83-81.46,39.51-125.08,37-45.4-2.63-89.23-19.69-134.77-19.84-.14,0-.17.22,0,.24,46.95,7.85,94,21.13,141.7,23.18,23.67,1,45.66-3.1,67.92-10.86,18-6.26,38.5-13.91,50.66-29.32A.28.28,0,0,0,896.36,242.36Z"/><path class="d" d="M599.87,248.63c-63.36-12.5-127.19-22.59-190.56-35-.08,0-.11.11,0,.12,63.32,13.13,126,28.68,190.45,35.91C600.3,249.7,600.43,248.74,599.87,248.63Z"/><path class="d" d="M405.27,213.8c.18.08.34-.19.16-.27-2.55-1.16-5.37-1.41-7.91-2.57-.11-.05-.2.1-.1.16C399.94,212.31,402.76,212.6,405.27,213.8Z"/><path class="d" d="M315.84,201.84c18.56.81,36.91,4.85,55.36,5.52.25,0,.38-.38.13-.49-15.52-6.91-35-7-51.72-7.83-20.17-1-40.5-.19-60.71-.76-19.39-.54-37.76-.7-57.07,1.23-18.65,1.87-37.18-1.44-55.78,0-30.86,2.42-59.61,12.71-87.63,25.12C37.72,233.82,15.5,247,12.81,271.44c-.15,1.31,2,1.59,2.27.32,4.8-25,30.83-37.58,51.88-46.9,28.83-12.77,60.63-25.39,92.66-24.67,16.5.37,32.47,1.45,49-.38,18.43-2.05,35.71-.15,54.13.48C280.43,200.91,298.13,201.07,315.84,201.84Z"/><path class="d" d="M214.91,429.15c.12,0,.12-.18,0-.18-13.34-.74-26.87-1.87-40.09.61-.16,0-.12.29,0,.27A313.2,313.2,0,0,1,214.91,429.15Z"/><path class="d" d="M658.84,189.46c16.63,2.26,35.88,5.1,52-1.1.31-.12.31-.68-.08-.63-17.59,2.21-34.22,2-51.88,1.54C658.72,189.27,658.72,189.44,658.84,189.46Z"/><path class="e" d="M120.5,353.92l-.57-3.28,6.3-3.21a3.81,3.81,0,0,0,1.41-1.3,2.63,2.63,0,0,0,.36-2l-9.21-53.49a2.83,2.83,0,0,0-1-1.8,3.19,3.19,0,0,0-1.78-.73l-7-.82-.57-3.33,56.92-9.8,3.15,18.34-4,.68-5.68-9.81a3.63,3.63,0,0,0-1-1.16,1.79,1.79,0,0,0-1.43-.3l-23.37,4,4.35,25.23,15-2.57a2,2,0,0,0,1.38-.73,3.38,3.38,0,0,0,.49-1.36l1.77-9,3.47-.6,4.53,26.29-3.48.6L155.92,316a3.66,3.66,0,0,0-.95-1.13,2,2,0,0,0-1.51-.21l-15,2.58,4.21,24.43a2.72,2.72,0,0,0,1,1.77,3.41,3.41,0,0,0,1.86.69l7.71.8.56,3.27Z"/><path class="e" d="M179.4,344.19l-.28-3.21,5.15-2.23a3.73,3.73,0,0,0,1.54-1.16,2.61,2.61,0,0,0,.51-1.89l-2.66-31.22a3.64,3.64,0,0,0-3.34-3.66l-5.14-1.31-.23-2.75,21.11-5.7,1,11.26h.1a61.75,61.75,0,0,1,3.37-5.88,19,19,0,0,1,4.41-4.78,11.8,11.8,0,0,1,6.3-2.28,18.14,18.14,0,0,1,4.7.08,28.91,28.91,0,0,1,3.65.95l1.31,15.48-5.19.44-2.41-3.64a4.16,4.16,0,0,0-2.2-1.4,7.7,7.7,0,0,0-3.24-.44,18.29,18.29,0,0,0-3.61.66,10.27,10.27,0,0,0-3.25,1.64,13.21,13.21,0,0,0-3,3.3l2.39,28.06a2.79,2.79,0,0,0,2.49,2.67l6.57,1.23.27,3.21Z"/><path class="e" d="M238.3,341.22A13.28,13.28,0,0,1,231,339.3a13.46,13.46,0,0,1-4.84-5.13,14.3,14.3,0,0,1-1.73-6.76,14,14,0,0,1,2.24-8.14,17.75,17.75,0,0,1,5.92-5.43,29.67,29.67,0,0,1,7.7-3.1,33.43,33.43,0,0,1,7.63-1q.62,0,2,.09l2.66.21a12.06,12.06,0,0,0,2,.06v-6.95c0-3.34-.45-5.57-1.4-6.71s-2.66-1.69-5.14-1.68a12.18,12.18,0,0,0-4.37.93,27.28,27.28,0,0,0-4.56,2.33c-1.49.95-2.91,1.89-4.25,2.84s-2.5,1.75-3.48,2.4h-1.89l-1.91-10.46a50.8,50.8,0,0,1,5.53-2.16,52.46,52.46,0,0,1,6.76-1.71,44.34,44.34,0,0,1,7.87-.72,33.09,33.09,0,0,1,9.79,1.42,17,17,0,0,1,8,5q3.17,3.56,3.11,9.89l0,25.66a3.11,3.11,0,0,0,1.09,2.47,4.55,4.55,0,0,0,3.12.93,15,15,0,0,0,1.84-.22q1.28-.21,2.4-.48h1.12l0,3.78a17.7,17.7,0,0,1-3.08,1.81,29.67,29.67,0,0,1-4.67,1.79,17.41,17.41,0,0,1-4.9.78,14.61,14.61,0,0,1-7.75-1.79c-2-1.21-3-3.42-3-6.63h-.15a18.33,18.33,0,0,1-5.43,5.65,16.62,16.62,0,0,1-5.79,2.39A28.39,28.39,0,0,1,238.3,341.22Zm7.92-8.08a12.75,12.75,0,0,0,4.52-.92,8.13,8.13,0,0,0,3.88-3.38l0-14.51a29.07,29.07,0,0,0-8.25,1.1,11,11,0,0,0-5.42,3.38,9.15,9.15,0,0,0-1.9,6.1,9.61,9.61,0,0,0,1.13,5,6.2,6.2,0,0,0,2.75,2.53A7.94,7.94,0,0,0,246.22,333.14Z"/><path class="e" d="M303.86,324.78a33,33,0,0,1-4.48-.68A24.18,24.18,0,0,1,295.8,323a6.29,6.29,0,0,0-1.69,1.52,4.93,4.93,0,0,0-.91,2.67,3.52,3.52,0,0,0,1.16,3.35,6.36,6.36,0,0,0,3.18,1.22l15.18,1.25q7.13.58,11,3.22a13.76,13.76,0,0,1,5.34,6.11,14.11,14.11,0,0,1,1.18,6.58,15.13,15.13,0,0,1-4.75,10,25.77,25.77,0,0,1-11.11,6,42.78,42.78,0,0,1-15.1,1.24A47.88,47.88,0,0,1,287,363.64a20.22,20.22,0,0,1-8.2-5,9.17,9.17,0,0,1-2.53-7.28q.4-4.85,3.63-7t10.28-3v-.15a19.28,19.28,0,0,1-4.31-2.16,13.42,13.42,0,0,1-3.8-3.67,7.54,7.54,0,0,1-1.3-5.11,6.7,6.7,0,0,1,2.1-4.59,13,13,0,0,1,4.53-2.63,35.49,35.49,0,0,1,5.37-1.43v-.1a28.13,28.13,0,0,1-4.86-3.84,15.44,15.44,0,0,1-3.48-5.13,14.54,14.54,0,0,1-.91-6.92,14,14,0,0,1,3.62-8.22,20.72,20.72,0,0,1,8.62-5.62,28.44,28.44,0,0,1,12-1.39,42.08,42.08,0,0,1,5.45.84,45.26,45.26,0,0,1,5.33,1.49l18.95,1.57-1.71,7-13-3.48v.05a11.47,11.47,0,0,1,3.92,6,17.94,17.94,0,0,1,.61,5.62,15.4,15.4,0,0,1-6.74,11.77Q314.46,325.65,303.86,324.78Zm-1.49,36.08a19.94,19.94,0,0,0,6.69-.57,12.62,12.62,0,0,0,5.6-3,8.23,8.23,0,0,0,2.57-5.58,6.8,6.8,0,0,0-1.56-5.08q-1.79-2.17-6.33-2.54l-16.19-1.34a11.8,11.8,0,0,0-1.58,2.61,13.37,13.37,0,0,0-1.07,4.6,8.2,8.2,0,0,0,.89,4.77,9.43,9.43,0,0,0,3,3.3,15.63,15.63,0,0,0,4,2A17.21,17.21,0,0,0,302.37,360.86Zm2.28-40.68a5.61,5.61,0,0,0,4.56-1.42,10.6,10.6,0,0,0,2.6-4.53,29.26,29.26,0,0,0,1.19-6.34,18.75,18.75,0,0,0-1.08-9,6.49,6.49,0,0,0-9.83-2.59,9.38,9.38,0,0,0-2.66,4.22,26.06,26.06,0,0,0-1.2,6.18,21.34,21.34,0,0,0,1,9.34A6,6,0,0,0,304.65,320.18Z"/><path class="e" d="M334.1,345.22l.5-3.18,5.89-1a3.44,3.44,0,0,0,1.74-.76,2.67,2.67,0,0,0,.92-1.72L348,307.45a3.33,3.33,0,0,0-.33-2.2,5.23,5.23,0,0,0-2.1-1.8L341.17,301l.42-2.68,22.18-.28-6.63,42.78a2.69,2.69,0,0,0,.32,1.94,3.5,3.5,0,0,0,1.46,1.23l4.92,2.63-.49,3.18Zm23.53-58a8.64,8.64,0,0,1-4.12-1.78,8.87,8.87,0,0,1-2.7-3.47,8,8,0,0,1,2.88-9.74,8.82,8.82,0,0,1,6.48-1.38,9.16,9.16,0,0,1,5.93,3.28,7.43,7.43,0,0,1,1.67,6.07,7.78,7.78,0,0,1-1.88,4.08,8.84,8.84,0,0,1-3.67,2.51A9,9,0,0,1,357.63,287.22Z"/><path class="e" d="M365.52,350.33l.59-3.17,5.72-.8a3.54,3.54,0,0,0,1.85-.72,2.84,2.84,0,0,0,.88-1.69l10.54-56.57a3.63,3.63,0,0,0-.25-2.31,4.32,4.32,0,0,0-2-1.8L378,280.49l.51-2.71,22.66.32-12.75,68.44a2.53,2.53,0,0,0,.29,1.92,4.09,4.09,0,0,0,1.4,1.3l4.48,2.71-.59,3.17Z"/><path class="e" d="M423.37,362.39a28.23,28.23,0,0,1-12.52-5.45,21.58,21.58,0,0,1-7.18-10.39,29.12,29.12,0,0,1-.51-14.69,28.51,28.51,0,0,1,5.56-12.44,25.39,25.39,0,0,1,10.66-8,25.13,25.13,0,0,1,14.4-1.09,22.61,22.61,0,0,1,11,5,20,20,0,0,1,5.85,8.66,19.18,19.18,0,0,1,.7,9.83c-.07.4-.2,1-.38,1.73s-.35,1.47-.54,2.18a14.64,14.64,0,0,1-.48,1.55l-32.89-6.25,1.1-4.68L437,332a39.22,39.22,0,0,0,.78-7.79,11.31,11.31,0,0,0-1.43-5.76,6.44,6.44,0,0,0-4.6-2.9,7.79,7.79,0,0,0-5.44.68,11.55,11.55,0,0,0-3.91,3.76,23.68,23.68,0,0,0-2.7,5.7,53.21,53.21,0,0,0-1.69,6.6,34.91,34.91,0,0,0-.53,10.28,14.19,14.19,0,0,0,3.53,8.16q3,3.36,9.48,4.58a22.92,22.92,0,0,0,6.5.41,27.31,27.31,0,0,0,5.18-1c1.53-.45,2.83-.86,3.9-1.21l1.4.27-.8,4.22a48.25,48.25,0,0,1-10.3,4A28.31,28.31,0,0,1,423.37,362.39Z"/><path class="e" d="M477,371.48l.62-3.26,7-.78a3.71,3.71,0,0,0,1.86-.74,2.71,2.71,0,0,0,.95-1.69l10.25-53.31a2.84,2.84,0,0,0-.27-2,3.5,3.5,0,0,0-1.43-1.34l-6.25-3.23.63-3.31,30.77,5.91a44.49,44.49,0,0,1,13,4.5,21.1,21.1,0,0,1,8.53,8q2.84,4.92,1.53,11.69a24.05,24.05,0,0,1-5.46,11.73,21.34,21.34,0,0,1-9.94,6.39,25.48,25.48,0,0,1-12.44.53,17.35,17.35,0,0,1-5.42-2.27,24.39,24.39,0,0,1-4.84-3.66l.65-3.62a12.73,12.73,0,0,0,3.29,1.41,41.33,41.33,0,0,0,4.24,1.08,9.45,9.45,0,0,0,6.07-.56,11.37,11.37,0,0,0,4.15-3.44A18.31,18.31,0,0,0,527,335a24.53,24.53,0,0,0,1.13-3.71,25.16,25.16,0,0,0,.31-7.85,11.46,11.46,0,0,0-3-6.5c-1.66-1.81-4.22-3.05-7.66-3.71l-5-1-10.68,55.57a2.59,2.59,0,0,0,.34,2,3.48,3.48,0,0,0,1.47,1.3l6.93,3.47-.63,3.26Z"/><path class="e" d="M562.2,389.13a27.76,27.76,0,0,1-13-5.72,22.17,22.17,0,0,1-7.08-10.7,29.78,29.78,0,0,1-.51-14.4,29.31,29.31,0,0,1,5.56-12.82,23.67,23.67,0,0,1,10.63-7.79,27.31,27.31,0,0,1,14.75-.86q8.79,1.64,13.73,6.35a22.56,22.56,0,0,1,6.52,11.18,31.49,31.49,0,0,1,.3,13.34,29.36,29.36,0,0,1-5.52,12.69A23.51,23.51,0,0,1,577,388.24,27.26,27.26,0,0,1,562.2,389.13Zm1.67-5.35a7.92,7.92,0,0,0,5.72-.84,11.68,11.68,0,0,0,4-4.23,29.17,29.17,0,0,0,2.69-6.21,60.6,60.6,0,0,0,1.66-6.63,53.69,53.69,0,0,0,.92-10.51,20.32,20.32,0,0,0-1.9-8.78,8.1,8.1,0,0,0-6.14-4.45,7.6,7.6,0,0,0-5.57.86,12.82,12.82,0,0,0-4.06,4.21,27.3,27.3,0,0,0-2.78,6.11,54.53,54.53,0,0,0-1.67,6.63,58.25,58.25,0,0,0-.9,7.47,32,32,0,0,0,.36,7.4,13.67,13.67,0,0,0,2.38,5.91A8.1,8.1,0,0,0,563.87,383.78Z"/><path class="e" d="M639.18,350.52l-2.39,5.66-16.11-2.81-5.41,31a4.39,4.39,0,0,0,1.09,3.76,11.7,11.7,0,0,0,3.53,2.82,12.31,12.31,0,0,0,3.65,1.39,19.42,19.42,0,0,0,3.4.28,21.73,21.73,0,0,0,2.95-.16l1.31.23-.63,3.63c-.77.28-2,.64-3.66,1.1a35.65,35.65,0,0,1-5.78,1,25.34,25.34,0,0,1-6.8-.3,23.33,23.33,0,0,1-7.59-2.6,13.13,13.13,0,0,1-4.84-4.5,8.38,8.38,0,0,1-1.06-6L606.78,351l-8-1.4.67-3.82a29.14,29.14,0,0,0,4.92-.52,6.92,6.92,0,0,0,3.54-1.87A8.89,8.89,0,0,0,610,339l1.52-6.33,12.72.25-2.55,14.6Z"/><path class="e" d="M631.63,400.12l.51-3.18L638,396a3.51,3.51,0,0,0,1.75-.76,2.69,2.69,0,0,0,.92-1.72l4.93-31.14a3.33,3.33,0,0,0-.33-2.2,5.14,5.14,0,0,0-2.09-1.81l-4.36-2.5.42-2.68,22.18-.21-6.77,42.76a2.74,2.74,0,0,0,.31,1.94,3.52,3.52,0,0,0,1.46,1.24l4.91,2.64-.5,3.18Zm23.72-57.93a8.65,8.65,0,0,1-4.12-1.79,8.93,8.93,0,0,1-2.68-3.48,8,8,0,0,1,2.91-9.73,8.87,8.87,0,0,1,6.48-1.36,9.2,9.2,0,0,1,5.92,3.3,7.43,7.43,0,0,1,1.65,6.08,7.8,7.8,0,0,1-1.89,4.07,9,9,0,0,1-8.27,2.91Z"/><path class="e" d="M691.83,410.35a27.73,27.73,0,0,1-13.28-4.93,22.2,22.2,0,0,1-7.71-10.27,29.8,29.8,0,0,1-1.37-14.33,29.28,29.28,0,0,1,4.79-13.13,23.59,23.59,0,0,1,10.14-8.41,27.23,27.23,0,0,1,14.67-1.75q8.88,1.11,14.09,5.53a22.6,22.6,0,0,1,7.18,10.76,31.5,31.5,0,0,1,1.09,13.3,29.37,29.37,0,0,1-4.75,13,23.46,23.46,0,0,1-10.18,8.46A27.21,27.21,0,0,1,691.83,410.35Zm1.36-5.44a7.93,7.93,0,0,0,5.66-1.17,11.8,11.8,0,0,0,3.77-4.48,29.24,29.24,0,0,0,2.32-6.35,60.89,60.89,0,0,0,1.25-6.72,52.86,52.86,0,0,0,.3-10.55,20.32,20.32,0,0,0-2.42-8.65,8.13,8.13,0,0,0-6.4-4.07,7.59,7.59,0,0,0-5.5,1.19,12.72,12.72,0,0,0-3.8,4.44,27.12,27.12,0,0,0-2.41,6.27,53.91,53.91,0,0,0-1.28,6.72,60.5,60.5,0,0,0-.45,7.51,32.21,32.21,0,0,0,.8,7.37,13.74,13.74,0,0,0,2.73,5.75A8.1,8.1,0,0,0,693.19,404.91Z"/><path class="e" d="M727.25,413.45l.15-3.22,5.34-1.55a3.8,3.8,0,0,0,1.63-.95,2.58,2.58,0,0,0,.74-1.81l1.42-31.65a3.18,3.18,0,0,0-.64-2.21,5.85,5.85,0,0,0-2.21-1.55l-4.36-1.89.12-2.76,21.36-2.92-.37,8.37h.1a24.51,24.51,0,0,1,5.8-5.47,15.35,15.35,0,0,1,5.55-2.23,25.84,25.84,0,0,1,5.38-.35,18.39,18.39,0,0,1,8.09,2.18,13.09,13.09,0,0,1,5.54,6,21.52,21.52,0,0,1,1.66,10.31l-1.17,26a2.74,2.74,0,0,0,.6,2,4.47,4.47,0,0,0,1.51,1.14l4.52,2-.15,3.22L760,414.92l.15-3.22,4.78-1.57a4.31,4.31,0,0,0,1.58-1,2.83,2.83,0,0,0,.75-2l1-21.14a41.43,41.43,0,0,0-.27-7.68,8,8,0,0,0-2.24-4.81q-1.77-1.66-5.5-1.83a21,21,0,0,0-5,.41,7.46,7.46,0,0,0-4.6,3.35l-1.39,31.1a2.36,2.36,0,0,0,.58,1.84,5.5,5.5,0,0,0,1.53,1.12l4,2-.15,3.22Z"/><path class="e" d="M799.47,413.62,798.18,399l4.73-.41,2.38,5.38a4.07,4.07,0,0,0,1.65,1.91A12.75,12.75,0,0,0,809.1,407a27.74,27.74,0,0,0,5.25,1.64,20.32,20.32,0,0,0,6.33.52,10.65,10.65,0,0,0,3.86-1,5.53,5.53,0,0,0,2.52-2.56,8.18,8.18,0,0,0,.61-4.36,5,5,0,0,0-3.25-4.59,32.87,32.87,0,0,0-6.49-1.79c-1.71-.36-3.25-.67-4.63-.92s-2.74-.53-4.1-.82a15.66,15.66,0,0,1-8.37-4.5,14.36,14.36,0,0,1-3.63-8.86,12.79,12.79,0,0,1,2.24-8.61,19.68,19.68,0,0,1,7.52-6.36,29.53,29.53,0,0,1,11-3,57.84,57.84,0,0,1,8-.22q3.43.18,8.16.89l2,14.6-4.89.44-2.62-5.26a4.93,4.93,0,0,0-1.43-1.7,9.83,9.83,0,0,0-2-1.18,25.34,25.34,0,0,0-4.37-1.23,17,17,0,0,0-5-.3,7.83,7.83,0,0,0-4.2,1.88q-2.1,1.69-1.8,5.16t2.76,4.86a22.5,22.5,0,0,0,5.44,2c1.53.28,3,.58,4.44.92l3.61.83a24.67,24.67,0,0,1,9.73,4q3.81,2.81,4.32,8.57a14.64,14.64,0,0,1-2.44,10.14,19.36,19.36,0,0,1-8.16,6.42,35.91,35.91,0,0,1-11.24,2.81,41.07,41.07,0,0,1-10.7-.26Q803.08,414.33,799.47,413.62Z"/></svg>